<?xml version="1.0" standalone="no"?>
<!DOCTYPE svg PUBLIC "-//W3C//DTD SVG 20010904//EN"
 "http://www.w3.org/TR/2001/REC-SVG-20010904/DTD/svg10.dtd">
<svg version="1.0" xmlns="http://www.w3.org/2000/svg"
 width="700.000000pt" height="700.000000pt" viewBox="0 0 700.000000 700.000000"
 preserveAspectRatio="xMidYMid meet">
<metadata>
Created by potrace 1.11, written by Peter Selinger 2001-2013
</metadata>
<g transform="translate(0.000000,700.000000) scale(0.100000,-0.100000)"
fill="#000000" stroke="none">
<path d="M5047 6853 c-297 -50 -517 -311 -519 -614 -1 -144 44 -275 135 -394
25 -33 42 -64 38 -70 -4 -5 -61 -100 -126 -210 -65 -110 -145 -245 -178 -300
-139 -232 -247 -417 -247 -423 0 -4 28 -20 62 -37 34 -16 89 -48 122 -71 34
-22 66 -43 73 -47 10 -6 53 55 123 178 27 47 167 284 281 475 58 96 119 201
137 232 27 47 36 56 55 52 76 -18 111 -22 183 -19 345 12 614 305 600 655 -15
382 -358 658 -739 593z"/>
<path d="M1580 5959 c-313 -32 -552 -280 -568 -592 -6 -126 9 -200 63 -313 61
-125 158 -225 283 -288 168 -85 377 -86 554 -2 30 14 59 26 65 26 5 0 23 -15
40 -32 27 -29 176 -171 326 -310 28 -27 54 -48 57 -48 3 0 18 18 35 40 16 22
62 72 102 111 40 39 73 74 73 78 0 4 -17 22 -37 40 -21 19 -109 102 -196 185
-88 83 -165 154 -172 159 -11 6 -9 19 11 67 60 148 68 302 25 440 -72 230
-286 409 -521 436 -30 3 -57 7 -60 8 -3 1 -39 -1 -80 -5z"/>
<path d="M3405 4600 c-22 -5 -56 -11 -75 -14 -19 -3 -66 -15 -104 -26 -325
-101 -593 -362 -701 -685 -29 -87 -30 -90 -46 -185 -10 -62 -13 -258 -5 -310
24 -153 78 -298 160 -430 53 -85 66 -101 161 -195 291 -290 711 -384 1113
-249 249 83 485 290 606 531 26 52 64 144 72 173 89 340 41 647 -143 927 -50
77 -202 229 -281 282 -116 78 -287 151 -390 167 -21 3 -55 9 -78 13 -54 10
-238 10 -289 1z"/>
<path d="M6231 3864 c-176 -37 -353 -178 -429 -343 l-24 -53 -72 7 c-39 3 -89
8 -111 10 -22 2 -70 7 -107 10 -37 3 -77 8 -90 10 -13 2 -63 6 -112 10 -50 4
-97 8 -106 10 -9 2 -55 6 -103 10 l-87 7 -1 -76 c-1 -42 -2 -79 -3 -83 -3 -11
-20 -136 -21 -147 0 -11 11 -13 119 -21 45 -4 97 -8 116 -11 19 -2 60 -6 90
-9 30 -3 75 -8 100 -10 25 -2 70 -7 100 -10 56 -5 156 -15 200 -20 14 -2 32
-3 40 -4 10 -1 20 -20 28 -53 6 -29 30 -91 53 -137 79 -160 257 -299 419 -327
14 -3 32 -7 40 -10 29 -10 168 -5 239 10 102 21 219 86 300 167 77 76 122 148
159 251 22 63 26 90 26 193 1 99 -3 132 -22 190 -104 315 -418 497 -741 429z"/>
<path d="M1651 3059 c-261 -87 -481 -159 -488 -159 -7 0 -13 4 -13 9 0 18
-138 147 -193 179 -30 18 -88 45 -129 60 -62 22 -90 26 -188 26 -67 1 -136 -5
-165 -13 -275 -74 -462 -307 -470 -586 -4 -123 13 -205 61 -304 113 -232 366
-374 624 -349 316 29 560 289 573 609 l2 63 485 163 c267 89 486 163 487 163
1 0 -10 28 -23 63 -30 74 -62 173 -67 207 -2 13 -8 25 -13 26 -5 1 -222 -69
-483 -157z"/>
<path d="M3970 2148 c-14 -5 -74 -20 -135 -33 -60 -12 -111 -27 -112 -32 -3
-8 28 -156 63 -308 3 -11 7 -29 9 -40 3 -11 25 -105 49 -210 24 -104 42 -194
39 -198 -3 -4 -23 -20 -46 -34 -107 -68 -205 -191 -252 -318 -39 -106 -45
-252 -15 -365 56 -206 195 -360 391 -434 266 -100 579 -1 739 234 74 109 101
194 106 335 4 119 -9 188 -51 281 -94 207 -298 351 -519 366 -27 2 -38 8 -41
23 -3 11 -14 61 -26 110 -11 50 -23 101 -25 115 -3 14 -19 84 -35 155 -17 72
-32 137 -34 145 -51 236 -49 232 -105 208z"/>
</g>
</svg>
